<?xml version="1.0" encoding="utf-8"?>
<!-- Generator: Adobe Illustrator 21.0.2, SVG Export Plug-In . SVG Version: 6.00 Build 0)  -->
<svg version="1.1" id="Layer_1" xmlns="http://www.w3.org/2000/svg" xmlns:xlink="http://www.w3.org/1999/xlink" x="0px" y="0px"
	 viewBox="0 0 490.7 454.1" style="enable-background:new 0 0 490.7 454.1;" xml:space="preserve">
<style type="text/css">
	.st0{fill:#2C2C54;}
	.st1{fill:#3E3E63;}
	.st2{fill:#4C4C70;}
	.st3{fill:#ECF0F1;}
	.st4{fill:#F79548;}
	.st5{fill:#FCBB76;}
	.st6{fill:#E5AEA5;}
	.st7{fill:#FCBE2D;}
	.st8{fill:#FFD24D;}
	.st9{fill:#463836;}
	.st10{fill:#F14742;}
	.st11{fill:#C2B8B9;}
</style>
<g>
	<path class="st0" d="M303.1,451.8c103.2,0,187.6-84.5,187.6-187.7S406.3,76.5,303.1,76.5S115.5,161,115.5,264.2
		S199.9,451.8,303.1,451.8z M303.1,97.4c91.8,0,166.8,75,166.8,166.8S394.9,431,303.1,431s-166.8-75-166.8-166.8
		S211.4,97.4,303.1,97.4L303.1,97.4z"/>
	<circle class="st0" cx="302.9" cy="264.6" r="179"/>
</g>
<circle class="st1" cx="255.9" cy="264.1" r="138.1"/>
<circle class="st2" cx="225.4" cy="264.1" r="104.2"/>
<path class="st3" d="M195.9,420c-30.7,19.1-44.7,19.3-48.1,16.2c-4-3.6-4.8-22.1,20.3-66.7c22.3-39.5,57.7-86.9,99.7-133.5
	c93.6-103.8,173-152.1,186.8-139.9c3.2,2.9,4.6,15.7-9.2,45.3c3.8,4.2,7.4,8.6,10.8,13.1c1-0.8,1.9-1.7,2.5-2.9
	c16.7-34.6,19-56.8,6.9-67.7C432.2,53.8,321.8,151.8,255.7,225c-42.8,47.5-79,95.9-101.8,136.4c-25.3,44.9-31.1,74.2-17,86.9
	c0.7,0.6,1.5,1.2,2.2,1.8c12.9,8.9,35.2,3,67.9-17.8c1.3-0.8,2.2-2,2.8-3.3C205.1,426.2,200.4,423.2,195.9,420z"/>
<g>
	<g>
		<path class="st4" d="M54.9,155.9c-9.2-9.2-24.6-9.2-33.9,0C8.2,168.7,0.5,206.2,0,207.7c0,1,0,1.5,0.5,2.1c1,0.5,2.1,0.5,3.1,0.5
			c1.5-0.5,39-7.7,51.8-21C64.7,180,64.7,165.1,54.9,155.9z"/>
	</g>
	<path class="st5" d="M53.4,156.4c-4.6-4.6-12.3-4.6-16.9,0c-6.7,6.7-10.3,25.2-10.3,25.7c0,0.5,0,1,0.5,1c0.5,0.5,0.5,0.5,1,0.5
		c1,0,19.5-4.1,25.7-10.3C58,168.7,58,161,53.4,156.4z"/>
	<polygon class="st6" points="110.6,45.4 142.3,13.8 184.6,5.5 212.2,0 206.7,27.6 198.1,69.9 166.4,101.4 	"/>
	<polygon class="st7" points="137.1,46.9 170.2,41.8 165,74.9 94.6,145 66.7,117 	"/>
	<g>
		<polygon class="st8" points="52.7,103 142.3,13.8 137.1,46.9 66.7,117 		"/>
		<polygon class="st8" points="94.6,145 165,74.9 198.1,69.9 108.5,159 		"/>
	</g>
	<polygon class="st9" points="184.6,5.5 212.2,0 206.7,27.6 	"/>
	<path class="st10" d="M37.6,128.4l45.5,45.7c2.9,2.9,7.3,3,10.3,0l15.1-15l-55.8-56l-15.1,15C34.7,121,34.7,125.4,37.6,128.4z"/>
	
		<rect x="74.1" y="94.2" transform="matrix(0.7087 -0.7055 0.7055 0.7087 -71.6302 93.9331)" class="st11" width="7.7" height="79.1"/>
</g>
</svg>
